<?xml version="1.0" standalone="no"?>
<!DOCTYPE svg PUBLIC "-//W3C//DTD SVG 20010904//EN"
 "http://www.w3.org/TR/2001/REC-SVG-20010904/DTD/svg10.dtd">
<svg version="1.0" xmlns="http://www.w3.org/2000/svg"
 width="1280.000000pt" height="847.000000pt" viewBox="0 0 1280.000000 847.000000"
 preserveAspectRatio="xMidYMid meet">
<metadata>
Created by potrace 1.15, written by Peter Selinger 2001-2017
</metadata>
<g transform="translate(0.000000,847.000000) scale(0.100000,-0.100000)"
fill="#cddc39" stroke="none">
<path d="M7550 8458 c-385 -36 -773 -192 -1035 -417 -50 -43 -73 -57 -85 -51
-70 37 -302 104 -480 137 -139 25 -562 25 -710 0 -504 -89 -887 -302 -1114
-622 -95 -132 -149 -277 -167 -445 l-12 -108 -61 -12 c-367 -69 -700 -240
-921 -471 -187 -195 -275 -399 -278 -639 -2 -236 61 -402 231 -613 187 -231
559 -438 925 -513 l87 -18 0 -101 c0 -281 147 -553 415 -766 326 -259 823
-406 1304 -386 320 14 577 76 841 203 l136 65 94 -59 c494 -308 1171 -380
1760 -186 256 84 483 218 643 379 59 60 160 184 171 212 1 0 33 -5 73 -13 193
-36 471 -47 658 -24 360 43 687 165 935 350 90 67 225 207 284 295 188 278
215 593 77 882 -58 119 -113 196 -220 304 l-96 96 47 77 c88 145 128 285 128
451 0 384 -253 730 -695 950 -297 148 -669 227 -1007 213 l-118 -5 -42 80
c-270 519 -994 828 -1768 755z"/>
<path d="M510 5222 l-22 -18 24 -35 c13 -20 39 -71 58 -115 18 -43 35 -80 36
-82 4 -6 54 22 54 30 0 18 -97 213 -112 226 -13 10 -19 9 -38 -6z"/>
<path d="M1074 5193 c-6 -33 -39 -137 -58 -184 -8 -17 41 -46 55 -32 8 9 53
149 64 200 6 29 4 34 -20 43 -35 13 -33 15 -41 -27z"/>
<path d="M27 4877 l-27 -22 70 -40 c39 -22 95 -54 125 -71 l54 -32 20 22 21
22 -22 21 c-13 11 -58 39 -100 62 -43 23 -80 46 -83 52 -10 15 -28 11 -58 -14z"/>
<path d="M716 4800 c-108 -19 -253 -117 -290 -195 -34 -70 -13 -198 64 -403
44 -117 45 -127 28 -200 -8 -36 -17 -53 -35 -61 -12 -6 -23 -15 -23 -20 0 -10
42 -46 63 -54 7 -3 1 -14 -17 -29 l-29 -24 33 -14 32 -13 -27 -15 -27 -14 28
-30 c37 -38 82 -58 136 -59 42 0 42 0 21 -16 -16 -11 -23 -26 -23 -49 0 -40 4
-41 48 -14 24 15 32 27 32 49 0 26 7 33 54 54 48 22 86 60 73 73 -6 7 -77 -28
-77 -38 0 -13 -98 -9 -133 5 -18 8 -38 21 -46 30 -12 15 -10 17 15 12 97 -15
140 -14 181 4 23 11 47 29 53 41 11 20 10 21 -11 9 -15 -8 -53 -10 -114 -7
-126 7 -149 23 -35 24 81 1 92 3 125 28 20 16 35 29 33 31 -2 2 -25 -1 -53 -5
-60 -10 -174 4 -217 26 -40 21 -30 28 14 9 20 -8 71 -17 115 -21 79 -7 80 -6
126 27 l46 34 0 69 c1 99 25 141 151 267 115 114 144 161 161 256 21 122 -16
175 -150 212 -84 23 -252 34 -325 21z"/>
<path d="M1605 4783 c-63 -15 -205 -67 -205 -75 0 -5 4 -18 10 -28 9 -17 15
-16 115 16 57 19 111 34 119 34 20 0 29 16 21 40 -6 20 -20 22 -60 13z"/>
<path d="M10390 3614 c-89 -19 -173 -50 -248 -91 l-64 -35 -50 21 c-146 60
-391 68 -563 17 -196 -59 -351 -173 -411 -303 -21 -47 -33 -63 -49 -63 -52 -1
-190 -45 -283 -91 -131 -64 -216 -144 -264 -245 -27 -57 -32 -79 -32 -143 0
-63 5 -86 28 -131 49 -99 145 -179 268 -225 l47 -18 0 -76 c-1 -91 17 -145 70
-216 145 -192 533 -264 827 -154 l54 20 63 -40 c75 -50 185 -86 304 -101 213
-27 462 40 626 167 l58 45 68 -13 c87 -15 293 -7 381 16 112 29 261 107 335
176 88 82 135 176 137 269 1 79 -14 135 -48 185 l-25 38 30 31 c16 17 42 56
58 86 24 48 28 66 28 145 0 110 -22 163 -102 243 -91 91 -270 161 -414 162
l-55 0 -23 54 c-55 133 -194 230 -386 271 -87 18 -278 18 -365 -1z"/>
<path d="M11240 1676 c-88 -17 -160 -47 -219 -90 -54 -40 -115 -116 -132 -164
-9 -27 -15 -30 -69 -36 -129 -15 -229 -64 -313 -155 -75 -82 -101 -149 -94
-251 7 -120 57 -206 166 -286 l45 -32 0 -108 c1 -105 2 -112 35 -172 95 -176
331 -268 550 -217 l64 15 53 -50 c172 -163 475 -171 666 -19 l37 29 63 -19
c137 -43 274 -33 405 30 180 86 272 276 215 444 l-20 59 34 48 c20 26 45 73
56 105 69 196 -75 416 -314 477 -51 13 -52 13 -63 63 -31 137 -160 256 -322
298 -118 31 -275 15 -382 -39 -27 -14 -52 -21 -57 -16 -16 16 -114 61 -162 75
-72 21 -170 25 -242 11z"/>
</g>
</svg>
